<svg xmlns="http://www.w3.org/2000/svg" version="1.1" xmlns:xlink="http://www.w3.org/1999/xlink" viewBox="0 0 200 200"><rect width="200" height="200" fill="url('#gradient')"></rect><defs><linearGradient id="gradient" gradientTransform="rotate(45 0.5 0.5)"><stop offset="0%" stop-color="#c17435"></stop><stop offset="100%" stop-color="#664034"></stop></linearGradient></defs><g><g fill="#3b555c" transform="matrix(3.7064146390508745,0,0,3.7064146390508745,6.022411785374075,126.356864966978)" stroke="#ecdfa5" stroke-width="0.2"><path d="M6.85 0L1.07 0L1.07-14.22L6.18-14.22Q8.93-14.22 10.36-13.21Q11.79-12.21 11.79-10.29L11.79-10.29Q11.79-9.19 11.28-8.41Q10.77-7.63 9.79-7.26L9.79-7.26Q10.90-6.96 11.49-6.16Q12.09-5.36 12.09-4.21L12.09-4.21Q12.09-2.12 10.77-1.07Q9.44-0.02 6.85 0L6.85 0ZM6.90-6.04L4.50-6.04L4.50-2.64L6.75-2.64Q7.68-2.64 8.17-3.06Q8.67-3.49 8.67-4.26L8.67-4.26Q8.67-6.04 6.90-6.04L6.90-6.04ZM4.50-11.57L4.50-8.29L6.29-8.29Q7.41-8.30 7.89-8.70Q8.37-9.10 8.37-9.88L8.37-9.88Q8.37-10.78 7.85-11.18Q7.33-11.57 6.18-11.57L6.18-11.57L4.50-11.57ZM17.40-14.22L17.40-2.64L23.37-2.64L23.37 0L13.97 0L13.97-14.22L17.40-14.22ZM36.23-7.47L36.23-6.82Q36.23-4.74 35.46-3.13Q34.69-1.53 33.27-0.67Q31.85 0.20 30.03 0.20Q28.21 0.20 26.81-0.64Q25.40-1.47 24.61-3.03Q23.83-4.58 23.79-6.59L23.79-6.59L23.79-7.39Q23.79-9.48 24.56-11.08Q25.32-12.68 26.75-13.54Q28.18-14.41 30.01-14.41L30.01-14.41Q31.82-14.41 33.23-13.55Q34.65-12.70 35.43-11.11Q36.22-9.52 36.23-7.47L36.23-7.47ZM32.74-6.76L32.74-7.41Q32.74-9.53 32.04-10.63Q31.33-11.73 30.01-11.73L30.01-11.73Q27.43-11.73 27.29-7.86L27.29-7.86L27.28-6.82Q27.28-4.73 27.97-3.60Q28.66-2.48 30.03-2.48L30.03-2.48Q31.33-2.48 32.03-3.58Q32.73-4.69 32.74-6.76L32.74-6.76ZM49.64-7.60L49.64-1.76Q48.85-0.88 47.32-0.34Q45.80 0.20 43.98 0.20L43.98 0.20Q41.19 0.20 39.52-1.51Q37.85-3.22 37.73-6.27L37.73-6.27L37.72-7.50Q37.72-9.60 38.47-11.17Q39.21-12.73 40.59-13.58Q41.97-14.42 43.79-14.42L43.79-14.42Q46.45-14.42 47.92-13.21Q49.38-11.99 49.63-9.58L49.63-9.58L46.33-9.58Q46.15-10.77 45.57-11.28Q44.98-11.79 43.91-11.79L43.91-11.79Q42.62-11.79 41.91-10.69Q41.21-9.60 41.20-7.57L41.20-7.57L41.20-6.71Q41.20-4.58 41.93-3.51Q42.66-2.44 44.22-2.44L44.22-2.44Q45.56-2.44 46.21-3.04L46.21-3.04L46.21-5.24L43.83-5.24L43.83-7.60L49.64-7.60Z"></path></g></g></svg>